<svg viewBox="0 0 32 32" width="32" height="32" fill="none" xmlns="http://www.w3.org/2000/svg">
  <!-- Keycap body -->
  <rect x="2" y="3" width="28" height="27" rx="4" fill="#242318" stroke="#68633a" stroke-width="1.5"/>
  <!-- Keycap bottom shadow -->
  <rect x="2" y="22" width="28" height="8" rx="0" fill="#1a1912"/>
  <!-- Keycap top face -->
  <rect x="5" y="4" width="22" height="20" rx="3" fill="#292823" stroke="#68633a" stroke-width="1"/>
  <!-- Inner face -->
  <rect x="7" y="6" width="18" height="16" rx="2.5" fill="#232218"/>
  <!-- Agora tree mark -->
  <g transform="translate(9, 7) scale(0.062)" fill="#9a934f">
    <path d="m107.9 0v88.1c0 3.7-4.4 5.5-7 2.9l-41.5-40.5 17.4-45.2c1.2-3.2 4.3-5.3 7.7-5.3h23.4z"/>
    <path d="m107.9 120v49.5c0 3.3-3.9 4.9-6.3 2.7l-64.3-60.6 18.9-49 46.9 45.9c3.1 3 4.8 7.1 4.8 11.5z"/>
    <path d="m107.9 199.8v22.2h-99.7c-5.7 0-9.7-5.8-7.6-11.1l33.4-87 69.3 65.4c3 2.7 4.6 6.5 4.6 10.5z"/>
    <path d="m118.6 0v88.1c0 3.7 4.4 5.5 7 2.9l41.4-40.5-17.3-45.2c-1.3-3.2-4.3-5.3-7.7-5.3h-23.4z"/>
    <path d="m118.6 120v49.5c0 3.3 3.9 4.9 6.3 2.7l64.3-60.6-18.9-49-46.9 45.9c-3.1 3-4.9 7.1-4.9 11.5z"/>
    <path d="m118.6 199.8v22.2h99.6c5.8 0 9.8-5.8 7.7-11.1l-33.5-87-69.3 65.4c-2.9 2.7-4.5 6.5-4.5 10.5z"/>
  </g>
  <!-- Keycap bottom edge -->
  <line x1="8" y1="28" x2="24" y2="28" stroke="rgba(154,147,79,0.25)" stroke-width="1.5" stroke-linecap="round"/>
</svg>
